<svg width="144" height="39" viewBox="0 0 144 39" fill="none" xmlns="http://www.w3.org/2000/svg">
<path d="M25.2972 20.3229C25.2772 20.3015 25.2598 20.2833 25.2396 20.2619H25.2374L16.4974 11.38L23.7645 3.93257H23.7693C23.8213 3.87718 23.8671 3.82958 23.9177 3.77598L25.6555 1.99492C26.997 0.685419 27.303 0.587027 27.303 0.587027H27.0294H26.9066H25.5291H22.5624L14.5082 9.29316L6.55219 0.587027H3.48602H2.10833H2.05233H1.71196C1.71196 0.587027 2.14152 0.720617 4.24856 2.88725L5.1341 3.81458C5.17249 3.85558 5.20649 3.89098 5.24569 3.93257H5.24689L12.3889 11.4126L3.84699 20.2619H3.83939C3.7118 20.3981 3.59441 20.5213 3.47562 20.6467L2.58649 21.5678C0.705035 23.4783 0.305664 23.6077 0.305664 23.6077H0.617441H0.702034H2.07973H5.0849L14.4756 13.532L23.9319 23.6077H26.9994H28.3769H28.5293H28.7733C28.7733 23.6077 28.5197 23.5253 27.4692 22.5301L25.2972 20.3229Z" fill="black"/>
<path d="M141.738 12.293C140.434 11.2281 138.586 10.5759 136.195 10.3365L129.054 9.65178C128.358 9.58638 127.782 9.50499 127.326 9.40719C126.869 9.3092 126.391 9.15741 125.891 8.95063C125.391 8.74425 125.016 8.44007 124.766 8.0377C124.516 7.63573 124.391 7.14077 124.391 6.55401C124.391 5.81527 124.619 5.17952 125.076 4.64636C125.533 4.114 126.147 3.71703 126.918 3.45625C127.69 3.19527 128.489 3.00548 129.315 2.88569C130.141 2.7665 131.021 2.70631 131.956 2.70631C133.891 2.70631 135.51 2.96729 136.815 3.48885C136.969 3.55064 137.122 3.61684 137.274 3.68603L137.272 3.68683C140.253 5.15632 139.782 6.13105 139.782 6.13105L140.145 5.97306L141.417 5.4447L141.416 5.4415L143.434 4.63016C141.26 1.5438 137.423 -8.58307e-05 131.924 -8.58307e-05C128.684 -8.58307e-05 126.152 0.500275 124.326 1.5C122.195 2.63031 121.131 4.36938 121.131 6.717C121.131 8.28208 121.674 9.56518 122.761 10.5647C123.304 11.0651 123.984 11.4562 124.799 11.7386C125.614 12.0214 126.386 12.2114 127.114 12.3092C127.842 12.407 129.141 12.543 131.011 12.7167L134.532 13.0427C135.358 13.1081 136.059 13.1953 136.635 13.3037C137.211 13.4127 137.825 13.5921 138.478 13.8417C139.13 14.0918 139.624 14.456 139.961 14.934C140.298 15.4125 140.467 15.9993 140.467 16.6948C140.467 17.9557 139.945 18.9887 138.902 19.7924C137.532 20.8359 135.478 21.3577 132.739 21.3577C130.13 21.3577 127.924 20.9883 126.12 20.2492C125.829 20.1332 125.559 20.012 125.303 19.8874C124.986 19.7272 124.703 19.572 124.463 19.4248C124.461 19.4236 124.46 19.4228 124.458 19.4216C122.553 18.2511 122.914 17.5052 122.914 17.5052L122.55 17.663L121.279 18.1913L119.435 18.9447C120.522 20.7275 122.239 22.0424 124.587 22.8902C126.935 23.7381 129.543 24.1619 132.413 24.1619C134.543 24.1619 136.38 23.9389 137.923 23.4933C139.467 23.0482 140.64 22.45 141.445 21.7003C142.249 20.9501 142.825 20.1624 143.173 19.336C143.521 18.5101 143.695 17.6192 143.695 16.6622C143.695 14.8148 143.042 13.3583 141.738 12.293Z" fill="black"/>
<path d="M55.9753 0.587027H54.5976H52.8528C52.8528 1.36957 52.8854 7.70668 52.9508 19.597L35.0493 0.587027H31.6908V20.2619C31.6908 23.4343 31.2944 23.6077 31.2944 23.6077H31.6908H33.0685H34.821C34.821 22.4778 34.7992 16.1298 34.7558 4.56512L52.7876 23.6077H55.9831V3.24162C56.0363 0.740416 56.3715 0.587027 56.3715 0.587027H55.9831H55.9753Z" fill="black"/>
<path d="M92.587 0.587027H92.1916H92.1908H90.8131H90.4667H89.0892H89.0882H88.6929C88.6929 0.587027 89.0782 0.761614 89.0882 3.81658V20.3781C89.0782 23.4331 88.6929 23.6077 88.6929 23.6077H89.0882H89.0892H90.4667H90.8131H92.1908H92.1916H92.587C92.587 23.6077 92.2016 23.4331 92.1916 20.3781V3.81658C92.2016 0.761614 92.587 0.587027 92.587 0.587027Z" fill="black"/>
<path d="M113.596 20.5043H101.122V3.93253H101.124C101.124 0.760368 101.521 0.586981 101.521 0.586981H101.124H101.122H99.7467H99.4003H98.0228H98.0126H97.6265C97.6265 0.586981 97.953 0.738171 98.0126 3.14699V21.0474C97.953 23.4562 97.6265 23.6074 97.6265 23.6074H98.0126H98.0228H99.4003H116.566V21.8848V20.5071V20.5043V20.1109C116.566 20.1109 116.399 20.4737 113.596 20.5043Z" fill="black"/>
<path d="M66.6572 15.2929L72.396 3.88017L78.0371 15.2929H66.6572ZM84.3318 20.2619H84.3104L74.222 0.587027H70.7331L59.9715 21.3454C58.7774 23.4743 58.4072 23.6077 58.4072 23.6077H58.7988H58.8034H60.1811H62.4833L65.2877 17.9341H79.4392L82.2434 23.6077H84.7088H86.0259H86.0865H86.4827C86.4827 23.6077 85.9955 23.4343 84.3318 20.2619Z" fill="black"/>
<path d="M32.2991 36.5449C31.993 36.3713 31.7506 36.1247 31.5716 35.8057C31.3926 35.4868 31.3032 35.1222 31.3032 34.7124C31.3032 34.2817 31.3976 33.9083 31.5872 33.5917C31.7764 33.2753 32.0242 33.0354 32.3303 32.8722C32.6363 32.7086 32.9657 32.627 33.3187 32.627C33.6144 32.627 33.884 32.6774 34.1278 32.7784C34.3716 32.8798 34.565 33.0212 34.7078 33.2027C34.8504 33.3845 34.9215 33.5893 34.9215 33.8173C34.9215 33.9887 34.8775 34.1199 34.7894 34.2105C34.701 34.3013 34.5844 34.3465 34.4392 34.3465C34.299 34.3465 34.1824 34.2999 34.0892 34.2065C33.9956 34.1131 33.9488 33.9963 33.9488 33.8563C34.0268 33.8045 34.0812 33.7475 34.1124 33.6851C34.1436 33.6229 34.159 33.5451 34.159 33.4517C34.159 33.2599 34.0824 33.1027 33.9294 32.981C33.7766 32.859 33.5728 32.798 33.3187 32.798C32.9451 32.798 32.6585 32.9316 32.4587 33.1987C32.2589 33.4661 32.1592 33.8409 32.1592 34.3233V35.1014C32.1592 35.5634 32.2565 35.9341 32.4509 36.2141C32.6457 36.4945 32.9347 36.6345 33.3187 36.6345C33.6714 36.6345 33.9786 36.5347 34.241 36.3349C34.5026 36.1351 34.665 35.8719 34.7272 35.545H34.9061C34.8334 35.9289 34.6532 36.2349 34.3652 36.4633C34.0774 36.6917 33.7282 36.8057 33.3187 36.8057C32.9451 36.8057 32.6053 36.7189 32.2991 36.5449Z" fill="black"/>
<path d="M37.4601 36.7275V36.5718L38.0826 36.4942V32.8912H37.4135L36.7365 34.1749H36.5186L36.6353 32.6964H40.3083L40.4251 34.1749H40.2071L39.5223 32.8912H38.861V36.4942L39.4835 36.5718V36.7275H37.4601Z" fill="black"/>
<path d="M42.1897 38.7978C42.0235 38.6628 41.9405 38.4812 41.9405 38.2529C41.9405 38.0975 41.9859 37.9715 42.0769 37.8755C42.1675 37.7795 42.2803 37.7317 42.4153 37.7317C42.5137 37.7317 42.6021 37.7523 42.6799 37.7939C42.7578 37.8353 42.82 37.8977 42.8666 37.9805C42.7888 38.0897 42.7498 38.2035 42.7498 38.3231C42.7498 38.4268 42.7836 38.5124 42.8512 38.5798C42.9184 38.647 43.004 38.681 43.1078 38.681C43.2324 38.681 43.34 38.6394 43.4308 38.5564C43.5214 38.4734 43.6034 38.3281 43.676 38.1207L44.1429 36.7822L42.3375 32.9381L41.8159 32.8603V32.7045H43.7538V32.8603L43.209 32.9537L44.5085 35.7319L45.4346 33.0547L44.7655 32.8603V32.7045H46.166V32.8603L45.6368 33.0547L43.8938 38.1207C43.785 38.4268 43.6538 38.6498 43.501 38.7898C43.3478 38.9302 43.1286 39 42.8432 39C42.5735 39 42.3557 38.9326 42.1897 38.7978Z" fill="black"/>
<path d="M49.9944 32.8913H48.7023L48.6171 34.1206C48.5805 34.6706 48.5391 35.0765 48.4925 35.3385C48.4457 35.6007 48.3885 35.8199 48.3213 35.9963C48.2745 36.1105 48.2239 36.2075 48.1695 36.2881C48.1151 36.3682 48.0683 36.4268 48.0293 36.463C47.9905 36.4992 47.9657 36.5228 47.9555 36.5332H49.9944V32.8913ZM51.4417 38.0117H51.2237L50.5391 36.7276H48.0331L47.3562 38.0117H47.1382L47.2552 36.5332H47.504C47.6181 36.5332 47.7299 36.4838 47.8387 36.385C47.9475 36.2867 48.0435 36.1441 48.1267 35.9573C48.1993 35.7861 48.2575 35.5733 48.3017 35.3191C48.3457 35.0649 48.3861 34.6656 48.4223 34.1206L48.4847 33.1869L47.7765 32.8523V32.6965H51.3171V32.8523L50.7725 32.9299V36.5332H51.3251L51.4417 38.0117Z" fill="black"/>
<path d="M52.939 36.7275V36.5718L53.4839 36.4942V32.9298L52.939 32.8522V32.6964H54.729V32.8522L54.2619 32.9298V35.9572L56.2309 33.0856V32.9298L55.7637 32.8522V32.6964H57.5538V32.8522L57.0089 32.9298V36.4942L57.5538 36.5718V36.7275H55.7637V36.5718L56.2309 36.4942V33.4124L54.2619 36.2918V36.4942L54.729 36.5718V36.7275H52.939Z" fill="black"/>
<path d="M62.0966 34.6812V32.8916H61.4429C61.1421 32.8916 60.9201 32.959 60.7773 33.0937C60.6348 33.2287 60.5636 33.4439 60.5636 33.7397V33.8407C60.5636 34.1313 60.6362 34.3441 60.7813 34.4788C60.9265 34.6138 61.1263 34.6812 61.3805 34.6812H62.0966ZM59.3806 36.7161C59.2457 36.6567 59.1291 36.5697 59.0303 36.4555L59.1473 36.3387C59.2407 36.4321 59.3313 36.4787 59.4194 36.4787C59.4974 36.4787 59.5558 36.4505 59.5948 36.3931C59.6336 36.3363 59.671 36.2221 59.7076 36.0509L59.7932 35.5996C59.8398 35.3454 59.9254 35.156 60.0498 35.0314C60.1744 34.9068 60.3768 34.824 60.6569 34.7822V34.7434C60.382 34.6966 60.1576 34.5956 59.9836 34.4398C59.81 34.2843 59.723 34.0561 59.723 33.7551C59.723 33.4075 59.8398 33.1443 60.0732 32.9654C60.3066 32.7864 60.6853 32.6968 61.2095 32.6968H63.4351V32.8604L62.8748 32.9382V36.4867L63.4351 36.5721V36.7279H61.5363V36.5721L62.0966 36.4867V34.8756H61.3805C61.1575 34.8756 60.9849 34.925 60.8631 35.0238C60.7411 35.1222 60.6619 35.2856 60.6258 35.514L60.5092 36.1755C60.4676 36.4037 60.3924 36.5657 60.2834 36.6617C60.1744 36.7577 60.0058 36.8057 59.7774 36.8057C59.6478 36.8057 59.5156 36.7759 59.3806 36.7161Z" fill="black"/>
<path d="M67.769 36.7275V36.5718L68.3604 36.3384V32.9222L67.8156 32.8522V32.6964H69.3253L70.555 35.607L71.7765 32.6964H73.2086V32.8522L72.6637 32.9298V36.4942L73.2086 36.5718V36.7275H71.4186V36.5718L71.8857 36.4942V32.9534L70.2747 36.7275H70.1813L68.555 32.9534V36.3384L69.1463 36.5718V36.7275H67.769Z" fill="black"/>
<path d="M76.7985 36.3387C76.9463 36.2557 77.0721 36.1351 77.1759 35.9769C77.2797 35.8185 77.3419 35.6282 77.3627 35.405V34.5956H76.8411C76.4157 34.5956 76.0981 34.6904 75.888 34.8798C75.678 35.069 75.5728 35.335 75.5728 35.6772C75.5728 35.9625 75.6402 36.1651 75.775 36.2843C75.91 36.4037 76.1071 36.4633 76.3667 36.4633C76.5067 36.4633 76.6505 36.4219 76.7985 36.3387ZM75.1216 36.5449C74.9088 36.3713 74.8022 36.1131 74.8022 35.7705C74.8022 35.283 75.0072 34.9368 75.4172 34.732C75.8268 34.5268 76.3015 34.4244 76.8411 34.4244H77.3627V33.8253C77.3627 33.5555 77.3327 33.3465 77.2733 33.1987C77.2135 33.051 77.1215 32.9474 76.9969 32.8876C76.8723 32.828 76.7037 32.798 76.4909 32.798C76.2471 32.798 76.0655 32.846 75.9464 32.942C75.8268 33.038 75.7674 33.1665 75.7674 33.3271C75.7674 33.4777 75.84 33.5763 75.9852 33.6229C75.9852 33.7525 75.936 33.8667 75.8376 33.9655C75.7388 34.0639 75.622 34.1131 75.4872 34.1131C75.3418 34.1131 75.225 34.0731 75.137 33.9927C75.0488 33.9123 75.0048 33.7891 75.0048 33.6229C75.0048 33.3221 75.1552 33.0809 75.456 32.8994C75.757 32.7176 76.1329 32.627 76.5843 32.627C77.6218 32.627 78.141 33.0783 78.141 33.9809V36.2063C78.141 36.3205 78.1654 36.4075 78.2148 36.4673C78.2638 36.5267 78.3354 36.5567 78.4288 36.5567C78.517 36.5567 78.587 36.5267 78.639 36.4673C78.6905 36.4075 78.7167 36.3259 78.7167 36.2221H78.8799C78.8799 36.4037 78.8215 36.5463 78.7049 36.6499C78.5882 36.7537 78.426 36.8057 78.2186 36.8057C77.9798 36.8057 77.779 36.7369 77.6154 36.5995C77.4522 36.4619 77.3677 36.2481 77.3627 35.9575C77.2381 36.2221 77.0473 36.4297 76.7907 36.5801C76.5339 36.7305 76.2497 36.8057 75.9386 36.8057C75.6066 36.8057 75.3342 36.7189 75.1216 36.5449Z" fill="black"/>
<path d="M80.3706 36.7275V36.5718L80.9154 36.4942V32.9298L80.3706 32.8522V32.6964H82.1603V32.8522L81.6935 32.9298V34.5877H83.6156V32.9298L83.1488 32.8522V32.6964H84.9385V32.8522L84.3939 32.9298V36.4942L84.9385 36.5718V36.7275H83.1488V36.5718L83.6156 36.4942V34.7821H81.6935V36.4942L82.1603 36.5718V36.7275H80.3706Z" fill="black"/>
<path d="M86.5557 36.7275V36.5718L87.1006 36.4942V32.9298L86.5557 32.8522V32.6964H88.3457V32.8522L87.8786 32.9298V35.9572L89.8476 33.0856V32.9298L89.3804 32.8522V32.6964H91.1705V32.8522L90.6256 32.9298V36.4942L91.1705 36.5718V36.7275H89.3804V36.5718L89.8476 36.4942V33.4124L87.8786 36.2918V36.4942L88.3457 36.5718V36.7275H86.5557Z" fill="black"/>
<path d="M95.9075 36.6617C95.7987 36.5657 95.7235 36.4037 95.6819 36.1755L95.5263 35.3504C95.4797 35.1066 95.4017 34.9354 95.2927 34.8368C95.1839 34.7384 95.0361 34.6862 94.8492 34.6812H94.1254V36.4867L94.686 36.5721V36.7279H92.7871V36.5721L93.3475 36.4867V32.9382L92.7871 32.8604V32.6968H94.686V32.8604L94.1254 32.9382V34.5022H94.8572C94.9867 34.4918 95.0905 34.4464 95.1683 34.3661C95.2459 34.2857 95.3107 34.1471 95.3629 33.9497L95.5029 33.3895C95.5653 33.1353 95.6495 32.9446 95.7557 32.8174C95.8621 32.6904 96.0271 32.627 96.25 32.627C96.4366 32.627 96.582 32.6774 96.6858 32.7784C96.7896 32.8798 96.8412 33.003 96.8412 33.1481C96.8412 33.2831 96.7986 33.3985 96.713 33.4945C96.6274 33.5905 96.5118 33.6383 96.3668 33.6383C96.2888 33.6383 96.2136 33.6255 96.1411 33.5993C96.1567 33.5527 96.1643 33.5087 96.1643 33.4673C96.1643 33.3999 96.1435 33.3427 96.1023 33.2961C96.0607 33.2495 96.0089 33.2259 95.9465 33.2259C95.8219 33.2259 95.7389 33.2987 95.6975 33.4439L95.5495 34.0043C95.4821 34.2481 95.3941 34.4192 95.2849 34.5178C95.6275 34.549 95.8777 34.6318 96.0361 34.7668C96.1942 34.9018 96.2992 35.1066 96.351 35.3816L96.4834 36.0509C96.5196 36.2221 96.5572 36.3363 96.5962 36.3931C96.635 36.4505 96.6936 36.4787 96.7714 36.4787C96.8594 36.4787 96.9504 36.4321 97.0438 36.3387L97.1606 36.4555C97.0618 36.5697 96.945 36.6567 96.8104 36.7161C96.6754 36.7759 96.543 36.8057 96.4134 36.8057C96.185 36.8057 96.0167 36.7577 95.9075 36.6617Z" fill="black"/>
<path d="M103.603 36.2221C103.8 35.9471 103.899 35.5734 103.899 35.1014V34.3233C103.899 33.8461 103.8 33.4725 103.603 33.2027C103.405 32.933 103.118 32.798 102.739 32.798C102.36 32.798 102.072 32.933 101.875 33.2027C101.678 33.4725 101.579 33.8461 101.579 34.3233V35.1014C101.579 35.5734 101.678 35.9471 101.875 36.2221C102.072 36.4971 102.36 36.6345 102.739 36.6345C103.118 36.6345 103.405 36.4971 103.603 36.2221ZM101.299 36.2299C100.931 35.8459 100.739 35.3636 100.723 34.7824H99.984V36.4945L100.451 36.5721V36.7279H98.6611V36.5721L99.2061 36.4945V32.9302L98.6611 32.8526V32.6968H100.451V32.8526L99.984 32.9302V34.5878H100.723C100.744 34.1987 100.845 33.8563 101.027 33.5607C101.208 33.2649 101.449 33.0354 101.747 32.872C102.045 32.7086 102.376 32.627 102.739 32.627C103.113 32.627 103.454 32.7152 103.762 32.8916C104.071 33.0678 104.313 33.3155 104.49 33.6347C104.666 33.9537 104.754 34.3129 104.754 34.7124C104.754 35.112 104.666 35.471 104.49 35.7899C104.313 36.1093 104.072 36.3581 103.766 36.5371C103.46 36.7161 103.118 36.8057 102.739 36.8057C102.179 36.8057 101.699 36.6137 101.299 36.2299Z" fill="black"/>
<path d="M109.85 35.1093V34.3309C109.85 33.3246 109.489 32.8212 108.768 32.8212C108.54 32.8212 108.332 32.8874 108.145 33.0198C107.959 33.152 107.811 33.3296 107.702 33.5526C107.593 33.776 107.536 34.017 107.53 34.2765V35.1093C107.53 35.3736 107.584 35.6216 107.69 35.8524C107.796 36.083 107.944 36.2674 108.134 36.4048C108.323 36.5424 108.534 36.611 108.768 36.611C109.489 36.611 109.85 36.1106 109.85 35.1093ZM106.208 38.7744L106.752 38.6964V32.938L106.208 32.8602V32.7045H107.53V33.5218C107.66 33.2414 107.835 33.0224 108.056 32.864C108.276 32.7059 108.54 32.6269 108.846 32.6269C109.214 32.6269 109.538 32.7139 109.818 32.8874C110.098 33.0614 110.316 33.3052 110.472 33.6188C110.628 33.9328 110.706 34.2997 110.706 34.7201C110.706 35.1403 110.628 35.5072 110.472 35.8212C110.316 36.1352 110.098 36.3776 109.818 36.5488C109.538 36.7199 109.214 36.8057 108.846 36.8057C108.54 36.8057 108.276 36.7263 108.056 36.5684C107.835 36.4102 107.66 36.1936 107.53 35.9186V38.6964L108.262 38.7744V38.9302H106.208V38.7744Z" fill="black"/>
<path d="M114.415 36.3387C114.563 36.2557 114.689 36.1351 114.793 35.9769C114.896 35.8185 114.959 35.6282 114.979 35.405V34.5956H114.458C114.032 34.5956 113.715 34.6904 113.505 34.8798C113.295 35.069 113.19 35.335 113.19 35.6772C113.19 35.9625 113.257 36.1651 113.392 36.2843C113.527 36.4037 113.724 36.4633 113.983 36.4633C114.123 36.4633 114.267 36.4219 114.415 36.3387ZM112.738 36.5449C112.526 36.3713 112.419 36.1131 112.419 35.7705C112.419 35.283 112.624 34.9368 113.034 34.732C113.443 34.5268 113.918 34.4244 114.458 34.4244H114.979V33.8253C114.979 33.5555 114.95 33.3465 114.89 33.1987C114.83 33.051 114.738 32.9474 114.614 32.8876C114.489 32.828 114.321 32.798 114.108 32.798C113.864 32.798 113.682 32.846 113.563 32.942C113.443 33.038 113.384 33.1665 113.384 33.3271C113.384 33.4777 113.457 33.5763 113.602 33.6229C113.602 33.7525 113.553 33.8667 113.454 33.9655C113.355 34.0639 113.239 34.1131 113.104 34.1131C112.959 34.1131 112.842 34.0731 112.754 33.9927C112.666 33.9123 112.622 33.7891 112.622 33.6229C112.622 33.3221 112.772 33.0809 113.073 32.8994C113.374 32.7176 113.75 32.627 114.201 32.627C115.239 32.627 115.758 33.0783 115.758 33.9809V36.2063C115.758 36.3205 115.782 36.4075 115.831 36.4673C115.881 36.5267 115.952 36.5567 116.045 36.5567C116.134 36.5567 116.204 36.5267 116.256 36.4673C116.307 36.4075 116.333 36.3259 116.333 36.2221H116.497C116.497 36.4037 116.438 36.5463 116.322 36.6499C116.205 36.7537 116.043 36.8057 115.835 36.8057C115.597 36.8057 115.396 36.7369 115.232 36.5995C115.069 36.4619 114.984 36.2481 114.979 35.9575C114.855 36.2221 114.664 36.4297 114.407 36.5801C114.151 36.7305 113.867 36.8057 113.555 36.8057C113.223 36.8057 112.951 36.7189 112.738 36.5449Z" fill="black"/>
</svg>
