<svg width="41" height="26" viewBox="0 0 41 26" fill="none" xmlns="http://www.w3.org/2000/svg">
<path d="M3.6399 23.7587C1.27155 21.679 3.38265e-06 19.3465 2.72154e-06 15.5654C1.55821e-06 8.9119 5.64954 2.94845 13.8652 -2.42426e-06L15.9185 2.61958C8.25013 6.04899 6.75094 10.4992 6.15311 13.3051C7.38787 12.7766 9.00432 12.5922 10.5886 12.7139C14.7366 13.0314 18.0063 15.8468 18.0063 19.3465C18.0063 21.1111 17.1585 22.8035 15.6492 24.0512C14.1399 25.299 12.093 26 9.95856 26C8.7782 25.9915 7.61168 25.7889 6.5269 25.4041C5.44212 25.0194 4.46074 24.46 3.6399 23.7587ZM26.6336 23.7587C24.2652 21.679 22.9937 19.3465 22.9937 15.5654C22.9937 8.91189 28.6432 2.94845 36.8588 -6.4446e-06L38.9122 2.61957C31.2438 6.04898 29.7446 10.4992 29.1468 13.3051C30.3815 12.7766 31.998 12.5922 33.5822 12.7139C37.7303 13.0314 41 15.8467 41 19.3465C41 21.1111 40.1521 22.8035 38.6429 24.0512C37.1336 25.299 35.0866 26 32.9522 26C31.7719 25.9915 30.6053 25.7889 29.5206 25.4041C28.4358 25.0194 27.4544 24.46 26.6336 23.7587Z" fill="black" fill-opacity="0.7"/>
</svg>
